<svg xmlns="http://www.w3.org/2000/svg" version="1.0" width="270.000000pt" height="270.000000pt" viewBox="0 0 270.000000 270.000000" preserveAspectRatio="xMidYMid meet">

<g transform="translate(0.000000,270.000000) scale(0.100000,-0.100000)" fill="#ffffff" stroke="none">
<path d="M1185 2689 c-656 -90 -1141 -613 -1182 -1274 -7 -125 9 -268 47 -412 27 -104 102 -290 115 -287 4 1 183 141 399 312 215 170 407 319 426 331 22 13 52 21 81 21 40 0 70 -15 259 -125 197 -115 219 -125 265 -125 31 0 61 7 80 18 40 25 869 791 873 808 4 16 -85 160 -149 240 -190 239 -491 419 -801 479 -102 20 -318 27 -413 14z" fill="#ffffff"/>
</g>
</svg>