<?xml version="1.0" encoding="utf-8"?>
<!-- Uploaded to: SVG Repo, www.svgrepo.com, Generator: SVG Repo Mixer Tools -->
<svg width="800px" height="800px" viewBox="0 0 64 64" xmlns="http://www.w3.org/2000/svg" xmlns:xlink="http://www.w3.org/1999/xlink" aria-hidden="true" role="img" class="iconify iconify--emojione" preserveAspectRatio="xMidYMid meet">
<g fill="#3e4347">
<path d="M7.1 6.9h49.8v50.2H7.1z">
</path>
<ellipse cx="32" cy="57.1" rx="26" ry="4.9">
</ellipse>
<ellipse cx="32" cy="23.6" rx="26" ry="4.9">
</ellipse>
<ellipse cx="32" cy="40.4" rx="26" ry="4.9">
</ellipse>
</g>
<g fill="#d0d0d0">
<ellipse cx="32" cy="6.9" rx="26" ry="4.9">
</ellipse>
<path d="M7.4 22.4c3.5 1.9 13.2 4.2 24.6 4.2s21.1-2.3 24.6-4.2c-6.2.9-14.9 2.4-24.6 2.4s-18.4-1.4-24.6-2.4">
</path>
<path d="M7.4 39.3c3.5 1.9 13.2 4.2 24.6 4.2s21.1-2.3 24.6-4.2c-6.2.9-14.9 2.4-24.6 2.4s-18.4-1.5-24.6-2.4">
</path>
<path d="M7.4 55.6c3.5 1.9 13.2 4.2 24.6 4.2s21.1-2.3 24.6-4.2c-6.2.9-15 2.4-24.6 2.4s-18.4-1.5-24.6-2.4">
</path>
</g>
<ellipse cx="15.7" cy="6.9" rx="3.9" ry="1" fill="#3e4347">
</ellipse>
</svg>